<svg width="35" height="35" viewBox="0 0 75 75" fill="none" xmlns="http://www.w3.org/2000/svg">
<g clip-path="url(#clip0_2_278)">
<path d="M30.8446 9.92743C30.2377 9.92743 29.7458 10.4192 29.7458 11.0262V19.8434C29.7458 20.3995 30.1613 20.8679 30.7133 20.9342C30.9536 20.9635 35.0214 20.943 35.261 20.9421C35.868 20.9396 36.3579 20.4458 36.3555 19.8391C36.3531 19.2338 35.8617 18.7446 35.2569 18.7446C35.2555 18.7446 35.2539 18.7446 35.2525 18.7446C34.2705 18.7483 32.887 18.7515 31.9434 18.7521V11.0262C31.9434 10.4192 31.4516 9.92743 30.8446 9.92743Z" fill="#1a1a1a"/>
<path d="M39.6691 9.92743C39.0621 9.92743 38.5703 10.4192 38.5703 11.0262V17.0984C38.5703 20.0136 41.7312 21.8726 44.2253 20.476C45.5715 19.7222 46.2832 18.5521 46.2832 17.0921V11.0262C46.2832 10.4192 45.7914 9.92743 45.1844 9.92743C44.5775 9.92743 44.0856 10.4192 44.0856 11.0262V17.0921C44.0856 18.1333 43.1614 18.7519 42.3821 18.7519C42.0607 18.7519 41.7911 18.6605 41.5504 18.4897C40.9873 18.0897 40.7678 17.6995 40.7678 17.0984V11.0262C40.7678 10.4192 40.276 9.92743 39.6691 9.92743Z" fill="#1a1a1a"/>
<path d="M52.2391 9.92743H49.5968C48.9899 9.92743 48.498 10.4192 48.498 11.0262V15.0897V15.0963V19.8507C48.498 20.4508 48.9816 20.9495 49.6015 20.9495C49.6016 20.9495 52.0309 20.939 52.7004 20.939C54.6565 20.939 56.2478 19.3806 56.2478 17.4649C56.2478 16.3704 55.7277 15.393 54.9173 14.7558C56.2825 12.6943 54.7752 9.92743 52.2391 9.92743ZM52.2391 12.1249C52.7873 12.1249 53.2334 12.5431 53.2334 13.0567C53.2334 13.5705 52.7873 13.9884 52.2391 13.9884L50.6956 13.9909V12.1249H52.2391ZM52.7006 18.7415C52.3321 18.7415 51.4328 18.7446 50.6956 18.7475V16.1907L52.7006 16.1885C53.4448 16.1885 54.0504 16.761 54.0504 17.4649C54.0503 18.1689 53.4448 18.7415 52.7006 18.7415Z" fill="#1a1a1a"/>
<path d="M28.8344 34.1949C28.2274 34.1949 27.7356 34.6868 27.7356 35.2937V37.0517C27.7356 37.6587 28.2274 38.1505 28.8344 38.1505C29.4413 38.1505 29.9331 37.6587 29.9331 37.0517V35.2937C29.9331 34.6869 29.4413 34.1949 28.8344 34.1949Z" fill="#1a1a1a"/>
<path d="M47.132 34.1949C46.525 34.1949 46.0332 34.6868 46.0332 35.2937V37.0517C46.0332 37.6587 46.525 38.1505 47.132 38.1505C47.7389 38.1505 48.2307 37.6587 48.2307 37.0517V35.2937C48.2307 34.6869 47.7388 34.1949 47.132 34.1949Z" fill="#1a1a1a"/>
<path d="M42.2455 37.0013C41.6386 37.0013 41.1468 37.4931 41.1468 38.1001C41.1468 38.6619 40.6897 39.119 40.1277 39.119C39.5659 39.119 39.1088 38.6619 39.1088 38.1001C39.1088 37.4931 38.6168 37.0013 38.01 37.0013C37.4031 37.0013 36.9113 37.4931 36.9113 38.1001C36.9113 38.6619 36.4542 39.119 35.8922 39.119C35.3304 39.119 34.8733 38.6619 34.8733 38.1001C34.8733 37.4931 34.3815 37.0013 33.7745 37.0013C33.1677 37.0013 32.6758 37.4931 32.6758 38.1001C32.6758 40.8606 35.9431 42.3305 38.01 40.518C40.0769 42.3306 43.3443 40.8603 43.3443 38.1001C43.3443 37.4931 42.8525 37.0013 42.2455 37.0013Z" fill="#1a1a1a"/>
<path d="M72.7937 67.292V30.8722C75.5325 28.81 75.9265 24.4515 72.7937 23.3504V19.5081C72.7937 14.8332 68.9911 11.0301 64.3171 11.0301C62.8446 11.0301 61.4631 10.2202 60.7113 8.9162C56.2691 1.21536 40.0102 -1.89266 27.2571 1.15896C26.667 1.30018 26.303 1.89308 26.4442 2.48318C26.5853 3.07329 27.1782 3.43735 27.7684 3.29612C35.0241 1.56008 44.1452 1.8207 51.153 4.49611C54.851 5.90809 57.5696 7.86769 58.8077 10.0141C59.9505 11.9961 62.0616 13.2276 64.3171 13.2276C67.7794 13.2276 70.5962 16.0451 70.5962 19.5081V23.1643H4.40383V19.5081C4.40383 16.0379 7.21284 13.2276 10.6829 13.2276C12.9384 13.2276 15.0496 11.9962 16.1921 10.0144C17.3874 7.94241 19.9807 6.03144 23.4944 4.63353C24.0583 4.40923 24.3336 3.7702 24.1091 3.20646C23.8847 2.64258 23.2455 2.36759 22.6821 2.59174C18.6533 4.19476 15.7508 6.38187 14.2884 8.91664C13.5369 10.2202 12.1552 11.0302 10.6829 11.0302C5.99805 11.0302 2.20631 14.8236 2.20631 19.5082V23.3505C-0.937755 24.4556 -0.524328 28.8162 2.20631 30.8723V67.2923C0.867434 68.3002 0 69.9023 0 71.7037C0 73.5212 1.47878 75 3.29628 75H50.66C51.2669 75 51.7587 74.5082 51.7587 73.9012C51.7587 73.2943 51.2669 72.8025 50.66 72.8025H3.29628C1.18681 72.8025 2.23121 68.3815 5.51973 68.3815H69.4804C71.3123 68.3815 72.8026 69.8719 72.8026 71.7037C72.8026 72.3096 72.3098 72.8025 71.7039 72.8025H55.1551C54.5481 72.8025 54.0563 73.2943 54.0563 73.9012C54.0563 74.5082 54.5481 75 55.1551 75H71.7039C73.5214 75 75.0001 73.5212 75.0001 71.7037C75 69.9023 74.1326 68.3002 72.7937 67.292ZM47.4314 55.6602C44.603 56.6591 41.6266 57.2279 38.5988 57.3388V45.2769C43.574 45.8178 47.4314 49.9565 47.4314 54.9759V55.6602ZM36.4013 57.339C33.3734 57.2281 30.397 56.6594 27.5688 55.6607V54.9761C27.5688 49.9859 31.3917 45.8241 36.4013 45.2794V57.339ZM26.0097 57.4275C26.055 57.4484 26.1015 57.4672 26.1499 57.4818C34.5044 60.6493 43.8581 60.1766 51.8465 56.1652C51.826 56.9559 52.0825 57.6938 52.5488 58.288C42.9398 63.0055 31.7744 62.8676 22.4503 58.2893C22.9088 57.7055 23.1746 56.9689 23.1536 56.1661C24.0857 56.634 25.0391 57.0542 26.0097 57.4275ZM16.5375 56.2521C16.5375 55.6415 17.0343 55.1447 17.6449 55.1447H19.8509C20.4615 55.1447 20.9583 55.6415 20.9583 56.2521C20.9583 56.8627 20.4615 57.3595 19.8509 57.3595H17.6448C17.0341 57.3593 16.5375 56.8627 16.5375 56.2521ZM22.0528 60.5362C23.1337 61.0434 24.2427 61.5 25.3711 61.8988V66.184H22.0528V60.5362ZM47.4314 62.5968V66.1834H38.5988V63.9517C41.603 63.8625 44.5636 63.4093 47.4314 62.5968ZM36.4013 66.1834H27.5688V62.5973C30.4359 63.4094 33.3966 63.8627 36.4013 63.9517V66.1834ZM49.6289 61.8985C50.7535 61.5008 51.8626 61.0437 52.9472 60.5345V66.1838H49.6289V61.8985ZM57.3552 55.1447C57.9659 55.1447 58.4626 55.6415 58.4626 56.2521C58.4626 56.8627 57.9659 57.3595 57.3552 57.3595H55.1491C54.5385 57.3595 54.0417 56.8627 54.0417 56.2521C54.0417 55.6415 54.5385 55.1447 55.1491 55.1447H57.3552ZM55.1447 59.5567L57.3552 59.5569C57.3567 59.5569 57.3582 59.5567 57.3596 59.5567V66.1838H55.1447V59.5567ZM59.5572 58.7139C60.8538 57.5529 61.0315 55.594 59.9603 54.2222C61.8401 51.2933 59.7278 47.4314 56.2477 47.4314V45.2132C56.2477 44.6073 56.7405 44.1144 57.3465 44.1144H65.0847C65.6906 44.1144 66.1834 44.6073 66.1834 45.2132V59.5703C66.1834 60.1763 65.6906 60.6691 65.0847 60.6691H59.5572V58.7139ZM56.2522 49.6288C57.9878 49.6288 59.0591 51.5564 58.109 53.0349C57.8667 52.9781 57.6145 52.9472 57.3552 52.9472C55.012 52.9472 54.8923 52.9179 54.3917 53.0358C53.4576 51.587 54.4913 49.6288 56.2522 49.6288ZM20.6047 53.0349C20.3624 52.9781 20.1104 52.9472 19.8509 52.9472C17.501 52.9472 17.3912 52.9179 16.8912 53.0349C15.9415 51.5572 17.0111 49.6288 18.7479 49.6288C20.4835 49.6288 21.5547 51.5564 20.6047 53.0349ZM18.7523 47.4314C15.244 47.4314 13.1754 51.3173 15.0397 54.2222C14.6018 54.7828 14.34 55.4872 14.34 56.2521C14.34 57.2291 14.7666 58.1082 15.4428 58.7139V60.6692H9.91535C9.30942 60.6692 8.81659 60.1764 8.81659 59.5705V45.2134C8.81659 44.6074 9.30942 44.1146 9.91535 44.1146H17.6535C18.2595 44.1146 18.7523 44.6074 18.7523 45.2134V47.4314ZM17.6404 59.5567C17.6418 59.5567 17.6433 59.5569 17.6448 59.5569L19.8553 59.5567V66.1838H17.6404V59.5567ZM59.5572 66.184V62.8666H65.0847C66.9021 62.8666 68.3809 61.3878 68.3809 59.5703V45.2132C68.3809 43.3957 66.9021 41.9169 65.0847 41.9169H57.3465C55.529 41.9169 54.0502 43.3957 54.0502 45.2132V48.023C52.1776 49.1077 51.3241 51.409 52.1731 53.5002C51.343 53.9708 50.4921 54.3991 49.6241 54.7859C49.4619 44.5247 37.0424 39.2197 29.3383 46.1319C26.9124 48.3086 25.4294 51.39 25.3758 54.7866C24.5086 54.4003 23.6585 53.9724 22.8291 53.5024C23.661 51.4588 22.8589 49.1289 20.9497 48.023V45.2132C20.9497 43.3957 19.4709 41.9169 17.6534 41.9169H9.91521C8.09771 41.9169 6.61893 43.3957 6.61893 45.2132V59.5703C6.61893 61.3878 8.09771 62.8666 9.91521 62.8666H15.4427V66.1838C4.6457 66.1838 5.15977 66.1414 4.40368 66.2974V31.8667C5.25969 32.0432 4.40529 31.98 59.567 31.98C60.1739 31.98 60.6657 31.4882 60.6657 30.8813C60.6657 30.2743 60.1739 29.7825 59.567 29.7825H5.51973C3.69623 29.7827 2.19752 28.2986 2.19752 26.4606C2.19752 25.8547 2.69035 25.3618 3.29628 25.3618H3.29657C3.2995 25.3618 3.30228 25.3623 3.30507 25.3623C3.308 25.3623 3.31078 25.3618 3.31357 25.3618H71.7037C73.49 25.3618 72.9254 28.3742 71.1669 29.3209C70.1482 29.9239 69.9009 29.7825 63.8898 29.7825C63.2828 29.7825 62.791 30.2743 62.791 30.8813C62.791 31.4882 63.2828 31.98 63.8898 31.98H69.4803C69.8623 31.98 70.2356 31.9409 70.596 31.8667V66.2974C69.818 66.137 70.1882 66.184 59.5572 66.184Z" fill="#1a1a1a"/>
<path d="M23.485 20.9495C20.2671 20.9495 17.6492 18.4772 17.6492 15.4385C17.6492 12.3996 20.2671 9.92743 23.485 9.92743C24.6415 9.92743 25.7596 10.2464 26.7188 10.8497C27.2324 11.1728 27.3868 11.8513 27.0636 12.3649C26.7405 12.8784 26.0622 13.0328 25.5485 12.7098C24.9405 12.3271 24.2269 12.1249 23.485 12.1249C21.4789 12.1249 19.8467 13.6114 19.8467 15.4385C19.8467 17.2655 21.4789 18.7519 23.485 18.7519C24.2464 18.7519 24.8852 18.5423 25.3833 18.129C25.4785 18.05 25.569 17.9632 25.653 17.87C26.0592 17.4191 26.7541 17.383 27.2047 17.7887C27.6556 18.1946 27.692 18.8895 27.286 19.3404C27.1306 19.513 26.9624 19.6746 26.7857 19.8208C25.8962 20.5589 24.7545 20.9495 23.485 20.9495Z" fill="#1a1a1a"/>
</g>
<defs>
<clipPath id="clip0_2_278">
<rect width="75" height="75" fill="white"/>
</clipPath>
</defs>
</svg>
